# xmcd
#
# Track frame offsets: 
#        150
#        10730
#        27900
#        44240
#        62611
#        83628
#        97456
#        111631
#        130807
#        143946
#        163019
#        184807
#        201634
#        219528
#        235615
#        252824
#        275069
#        288569
#        299716
#
# Disc length: 4175 seconds
#
# Revision: 0
# Processed by: cddbd v1.5.2PL0 Copyright (c) Steve Scherf et al.
# Submitted via: ExactAudioCopy v1.0b3
#
DISCID=38104d13
DTITLE=Demis Roussos - In Holland
DYEAR=1995
DGENRE=Pop
TTITLE0=Ouverture - Act De Provence
TTITLE1=Eleni
TTITLE2=One Way Wind
TTITLE3=Give Me Back My Love
TTITLE4=Red Rose Cafe
TTITLE5=You Don't Own Me
TTITLE6=Paloma Blanca
TTITLE7=No More Boleros
TTITLE8=On My Own
TTITLE9=Mon Amour
TTITLE10=If I Could Only Be With You
TTITLE11=Sister Mary
TTITLE12=My Broken Souvenirs
TTITLE13=Come Waltz With Me
TTITLE14=Thimame
TTITLE15=Sailin' Home
TTITLE16=Amazing Grace
TTITLE17=Jerusalem Of Gold
TTITLE18=Glory Glory Hallelujah
EXTD=
EXTT0=
EXTT1=
EXTT2=
EXTT3=
EXTT4=
EXTT5=
EXTT6=
EXTT7=
EXTT8=
EXTT9=
EXTT10=
EXTT11=
EXTT12=
EXTT13=
EXTT14=
EXTT15=
EXTT16=
EXTT17=
EXTT18=
PLAYORDER=
